<svg xmlns="http://www.w3.org/2000/svg" viewBox="0 0 620 360" font-family="Segoe UI, sans-serif">
  <!-- Wong palette: 6 curves, each unique color -->
  <defs>
    <marker id="arrow3" markerWidth="8" markerHeight="6" refX="8" refY="3" orient="auto">
      <path d="M0,0 L8,3 L0,6" fill="#555"/>
    </marker>
  </defs>

  <rect width="620" height="360" fill="#fafafa" rx="4"/>
  <text x="310" y="24" text-anchor="middle" font-size="13" font-weight="bold" fill="#333">Figure 3: Power-Law vs Exponential Decay in Tail Zone</text>
  <text x="310" y="40" text-anchor="middle" font-size="10" fill="#888">Both curves start at p(threshold) = 1 and decrease smoothly — no seam</text>

  <!-- Axes: chart area x=[70,550], y=[60,290] => width=480, height=230 -->
  <line x1="70" y1="290" x2="560" y2="290" stroke="#555" stroke-width="1.5" marker-end="url(#arrow3)"/>
  <line x1="70" y1="290" x2="70" y2="52" stroke="#555" stroke-width="1.5" marker-end="url(#arrow3)"/>

  <text x="310" y="328" text-anchor="middle" font-size="11" fill="#555">Position within tail zone: threshold → 100%</text>
  <text x="22" y="175" text-anchor="middle" font-size="11" fill="#555" transform="rotate(-90,22,175)">Acceptance weight p(x)</text>

  <!-- Ticks -->
  <text x="70" y="306" text-anchor="middle" font-size="10" fill="#666">T</text>
  <text x="550" y="306" text-anchor="middle" font-size="10" fill="#666">100%</text>
  <text x="58" y="64" text-anchor="end" font-size="10" fill="#666">1.0</text>
  <line x1="65" y1="60" x2="75" y2="60" stroke="#555"/>
  <text x="58" y="294" text-anchor="end" font-size="10" fill="#666">0</text>

  <!-- Grid lines -->
  <line x1="70" y1="60" x2="550" y2="60" stroke="#e8e8e8" stroke-width="0.5"/>
  <line x1="70" y1="117.5" x2="550" y2="117.5" stroke="#e8e8e8" stroke-width="0.5"/>
  <line x1="70" y1="175" x2="550" y2="175" stroke="#e8e8e8" stroke-width="0.5"/>
  <line x1="70" y1="232.5" x2="550" y2="232.5" stroke="#e8e8e8" stroke-width="0.5"/>
  <text x="58" y="121" text-anchor="end" font-size="9" fill="#aaa">0.75</text>
  <text x="58" y="179" text-anchor="end" font-size="9" fill="#aaa">0.50</text>
  <text x="58" y="236" text-anchor="end" font-size="9" fill="#aaa">0.25</text>

  <!-- Helper: x(t) = 70 + t*480, y(p) = 290 - p*230 -->

  <!-- ===== POWER-LAW ===== -->

  <!-- α=1 (linear) — #56B4E9 sky blue -->
  <polyline points="
    70.0,60.0 79.6,64.6 89.2,69.2 98.8,73.8 108.4,78.4
    118.0,83.0 127.6,87.6 137.2,92.2 146.8,96.8 156.4,101.4
    166.0,106.0 175.6,110.6 185.2,115.2 194.8,119.8 204.4,124.4
    214.0,129.0 223.6,133.6 233.2,138.2 242.8,142.8 252.4,147.4
    262.0,152.0 271.6,156.6 281.2,161.2 290.8,165.8 300.4,170.4
    310.0,175.0 319.6,179.6 329.2,184.2 338.8,188.8 348.4,193.4
    358.0,198.0 367.6,202.6 377.2,207.2 386.8,211.8 396.4,216.4
    406.0,221.0 415.6,225.6 425.2,230.2 434.8,234.8 444.4,239.4
    454.0,244.0 463.6,248.6 473.2,253.2 482.8,257.8 492.4,262.4
    502.0,267.0 511.6,271.6 521.2,276.2 530.8,280.8 540.4,285.4
    550.0,290.0"
    fill="none" stroke="#56B4E9" stroke-width="1.8" stroke-dasharray="8,4"/>

  <!-- α=2 (quadratic) — #0072B2 dark blue -->
  <polyline points="
    70.0,60.0 79.6,69.1 89.2,78.0 98.8,86.8 108.4,95.3
    118.0,103.7 127.6,111.9 137.2,119.9 146.8,127.7 156.4,135.3
    166.0,142.8 175.6,150.1 185.2,157.2 194.8,164.1 204.4,170.8
    214.0,177.3 223.6,183.6 233.2,189.8 242.8,195.8 252.4,201.6
    262.0,207.2 271.6,212.6 281.2,217.9 290.8,222.9 300.4,227.8
    310.0,232.5 319.6,237.0 329.2,241.3 338.8,245.5 348.4,249.4
    358.0,253.2 367.6,256.8 377.2,260.2 386.8,263.4 396.4,266.4
    406.0,269.3 415.6,272.0 425.2,274.5 434.8,276.8 444.4,278.9
    454.0,280.8 463.6,282.5 473.2,284.1 482.8,285.5 492.4,286.7
    502.0,287.7 511.6,288.5 521.2,289.2 530.8,289.6 540.4,289.9
    550.0,290.0"
    fill="none" stroke="#0072B2" stroke-width="2.5"/>

  <!-- α=5 — #009E73 dark green -->
  <polyline points="
    70.0,60.0 79.6,82.1 89.2,102.5 98.8,121.2 108.4,138.4
    118.0,154.2 127.6,168.6 137.2,181.8 146.8,193.8 156.4,204.7
    166.0,214.6 175.6,223.6 185.2,231.7 194.8,239.0 204.4,245.5
    214.0,251.3 223.6,256.6 233.2,261.2 242.8,265.3 252.4,268.9
    262.0,272.1 271.6,274.9 281.2,277.3 290.8,279.4 300.4,281.3
    310.0,282.8 319.6,284.1 329.2,285.3 338.8,286.2 348.4,287.0
    358.0,287.6 367.6,288.2 377.2,288.6 386.8,289.0 396.4,289.2
    406.0,289.4 415.6,289.6 425.2,289.7 434.8,289.8 444.4,289.9
    454.0,289.9 463.6,290.0 473.2,290.0 482.8,290.0 492.4,290.0
    502.0,290.0 511.6,290.0 521.2,290.0 530.8,290.0 540.4,290.0
    550.0,290.0"
    fill="none" stroke="#009E73" stroke-width="1.8" stroke-dasharray="4,3"/>

  <!-- ===== EXPONENTIAL ===== -->

  <!-- λ=3 — #D55E00 vermillion/red -->
  <polyline points="
    70.0,60.0 79.6,73.4 89.2,86.0 98.8,97.9 108.4,109.1
    118.0,119.6 127.6,129.5 137.2,138.9 146.8,147.7 156.4,156.0
    166.0,163.8 175.6,171.1 185.2,178.0 194.8,184.6 204.4,190.7
    214.0,196.5 223.6,201.9 233.2,207.1 242.8,211.9 252.4,216.4
    262.0,220.7 271.6,224.8 281.2,228.6 290.8,232.1 300.4,235.5
    310.0,238.7 319.6,241.7 329.2,244.5 338.8,247.1 348.4,249.6
    358.0,252.0 367.6,254.2 377.2,256.3 386.8,258.2 396.4,260.1
    406.0,261.8 415.6,263.5 425.2,265.0 434.8,266.5 444.4,267.8
    454.0,269.1 463.6,270.3 473.2,271.5 482.8,272.6 492.4,273.6
    502.0,274.5 511.6,275.4 521.2,276.3 530.8,277.1 540.4,277.8
    550.0,278.5"
    fill="none" stroke="#D55E00" stroke-width="1.8" stroke-dasharray="8,4"/>

  <!-- λ=7 — #E69F00 orange -->
  <polyline points="
    70.0,60.0 79.6,90.0 89.2,116.2 98.8,138.9 108.4,158.6
    118.0,175.8 127.6,190.7 137.2,203.7 146.8,215.0 156.4,224.8
    166.0,233.3 175.6,240.7 185.2,247.1 194.8,252.7 204.4,257.6
    214.0,261.8 223.6,265.5 233.2,268.7 242.8,271.5 252.4,273.9
    262.0,276.0 271.6,277.8 281.2,279.4 290.8,280.8 300.4,282.0
    310.0,283.1 319.6,284.0 329.2,284.8 338.8,285.4 348.4,286.0
    358.0,286.6 367.6,287.0 377.2,287.4 386.8,287.7 396.4,288.0
    406.0,288.3 415.6,288.5 425.2,288.7 434.8,288.9 444.4,289.0
    454.0,289.1 463.6,289.3 473.2,289.4 482.8,289.4 492.4,289.5
    502.0,289.6 511.6,289.6 521.2,289.7 530.8,289.7 540.4,289.8
    550.0,289.8"
    fill="none" stroke="#E69F00" stroke-width="2.5"/>

  <!-- λ=15 — #B8860B dark yellow/goldenrod -->
  <polyline points="
    70.0,60.0 79.6,119.6 89.2,163.8 98.8,196.5 108.4,220.7
    118.0,238.7 127.6,252.0 137.2,261.8 146.8,269.1 156.4,274.5
    166.0,278.5 175.6,281.5 185.2,283.7 194.8,285.3 204.4,286.6
    214.0,287.4 223.6,288.1 233.2,288.6 242.8,289.0 252.4,289.2
    262.0,289.4 271.6,289.6 281.2,289.7 290.8,289.8 300.4,289.8
    310.0,289.9 319.6,289.9 329.2,289.9 338.8,289.9 348.4,290.0
    358.0,290.0 367.6,290.0 377.2,290.0 386.8,290.0 396.4,290.0
    406.0,290.0 415.6,290.0 425.2,290.0 434.8,290.0 444.4,290.0
    454.0,290.0 463.6,290.0 473.2,290.0 482.8,290.0 492.4,290.0
    502.0,290.0 511.6,290.0 521.2,290.0 530.8,290.0 540.4,290.0
    550.0,290.0"
    fill="none" stroke="#B8860B" stroke-width="1.8" stroke-dasharray="4,3"/>

  <!-- Starting point dot -->
  <circle cx="70" cy="60" r="4" fill="#333" stroke="white" stroke-width="1.5"/>

  <!-- Curve labels (right side) -->
  <text x="556" y="274" font-size="9" fill="#56B4E9" font-weight="bold">α=1</text>
  <text x="556" y="258" font-size="9" fill="#0072B2" font-weight="bold">α=2</text>
  <text x="556" y="242" font-size="9" fill="#009E73" font-weight="bold">α=5</text>
  <text x="556" y="222" font-size="9" fill="#D55E00" font-weight="bold">λ=3</text>
  <text x="556" y="206" font-size="9" fill="#E69F00" font-weight="bold">λ=7</text>
  <text x="556" y="190" font-size="9" fill="#B8860B" font-weight="bold">λ=15</text>

  <!-- Legend -->
  <rect x="85" y="48" width="240" height="55" rx="4" fill="white" stroke="#ddd"/>
  <line x1="95" y1="62" x2="115" y2="62" stroke="#56B4E9" stroke-width="2"/>
  <line x1="118" y1="62" x2="138" y2="62" stroke="#0072B2" stroke-width="2"/>
  <line x1="141" y1="62" x2="161" y2="62" stroke="#009E73" stroke-width="2"/>
  <text x="167" y="66" font-size="10" fill="#333">Power-law: ((1−x)/(1−T))^α</text>
  <line x1="95" y1="79" x2="115" y2="79" stroke="#D55E00" stroke-width="2"/>
  <line x1="118" y1="79" x2="138" y2="79" stroke="#E69F00" stroke-width="2"/>
  <line x1="141" y1="79" x2="161" y2="79" stroke="#B8860B" stroke-width="2"/>
  <text x="167" y="83" font-size="10" fill="#333">Exponential: exp(−λ·(x−T)/(1−T))</text>
  <text x="167" y="98" font-size="9" fill="#888" font-style="italic">Solid = default, dashed = variants</text>

  <!-- Key difference annotation -->
  <rect x="370" y="48" width="215" height="28" rx="4" fill="#f5f5f5" stroke="#ccc" stroke-width="0.8"/>
  <text x="380" y="60" font-size="9" fill="#0072B2">Power-law → 0 at 100%  (impossible max)</text>
  <text x="380" y="72" font-size="9" fill="#E69F00">Exponential → ε at 100%  (asymptotic)</text>
</svg>
